<svg xmlns="http://www.w3.org/2000/svg" width="16" height="16" fill="none" viewBox="0 0 16 16" aria-hidden="true"><path fill="currentColor" d="M7.25 2v5.25H2V2zM6 3.25H3.25V6H6zM14 2v5.25H8.75V2zm-1.25 1.25H10V6h2.75zm-5.5 5.5V14H2V8.75zM6 10H3.25v2.75H6zm8-1.25V14H8.75V8.75zM12.75 10H10v2.75h2.75z"></path><path fill="currentColor" d="M7.25 2v5.25H2V2zM6 3.25H3.25V6H6zM14 2v5.25H8.75V2zm-1.25 1.25H10V6h2.75zm-5.5 5.5V14H2V8.75zM6 10H3.25v2.75H6zm8-1.25V14H8.75V8.75zM12.75 10H10v2.75h2.75z"></path></svg>
